# xmcd
#
# Track frame offsets:
#	150
#	16031
#	32891
#	55656
#	70539
#	96580
#	115354
#	137350
#	163907
#
# Disc length: 2516 seconds
#
# Revision: 0
# Processed by: cddbd v1.5.2PL0 Copyright (c) Steve Scherf et al.
# Submitted via: dBpowerAMP V4.0
#
DISCID=7109d209
DTITLE=Ali Primera - al pueblo lo que es del cesar
DYEAR=1900
DGENRE=
TTITLE0=sangueo para el regreso
TTITLE1=cielo despejado
TTITLE2=al pueblo lo que es del cesar
TTITLE3=don samuel
TTITLE4=cancion para acordarme
TTITLE5=tia juana
TTITLE6=el sombrero azul
TTITLE7=la sirena de este tiempo
TTITLE8=lanoche del jabali
EXTD=
EXTT0=
EXTT1=
EXTT2=
EXTT3=
EXTT4=
EXTT5=
EXTT6=
EXTT7=
EXTT8=
PLAYORDER=
